<svg class="rich-terminal" viewBox="0 0 994 635.5999999999999" xmlns="http://www.w3.org/2000/svg">
    <!-- Generated with Rich https://www.textualize.io -->
    <style>

    @font-face {
        font-family: "Fira Code";
        src: local("FiraCode-Regular"),
                url("https://cdnjs.cloudflare.com/ajax/libs/firacode/6.2.0/woff2/FiraCode-Regular.woff2") format("woff2"),
                url("https://cdnjs.cloudflare.com/ajax/libs/firacode/6.2.0/woff/FiraCode-Regular.woff") format("woff");
        font-style: normal;
        font-weight: 400;
    }
    @font-face {
        font-family: "Fira Code";
        src: local("FiraCode-Bold"),
                url("https://cdnjs.cloudflare.com/ajax/libs/firacode/6.2.0/woff2/FiraCode-Bold.woff2") format("woff2"),
                url("https://cdnjs.cloudflare.com/ajax/libs/firacode/6.2.0/woff/FiraCode-Bold.woff") format("woff");
        font-style: bold;
        font-weight: 700;
    }

    .terminal-3855978200-matrix {
        font-family: Fira Code, monospace;
        font-size: 20px;
        line-height: 24.4px;
        font-variant-east-asian: full-width;
    }

    .terminal-3855978200-title {
        font-size: 18px;
        font-weight: bold;
        font-family: arial;
    }

    .terminal-3855978200-r1 { fill: #c5c8c6 }
.terminal-3855978200-r2 { fill: #e0e0e0 }
.terminal-3855978200-r3 { fill: #a0a3a6 }
.terminal-3855978200-r4 { fill: #ddedf9;font-weight: bold }
.terminal-3855978200-r5 { fill: #797979 }
.terminal-3855978200-r6 { fill: #4f4f4f }
.terminal-3855978200-r7 { fill: #0178d4 }
.terminal-3855978200-r8 { fill: #121212 }
.terminal-3855978200-r9 { fill: #e0e0e0;font-weight: bold }
.terminal-3855978200-r10 { fill: #f4005f;font-weight: bold }
.terminal-3855978200-r11 { fill: #98e024 }
.terminal-3855978200-r12 { fill: #fd971f }
.terminal-3855978200-r13 { fill: #2d2d2d }
.terminal-3855978200-r14 { fill: #1e1e1e }
.terminal-3855978200-r15 { fill: #000000 }
.terminal-3855978200-r16 { fill: #6a6a6a;font-weight: bold }
.terminal-3855978200-r17 { fill: #0d0d0d }
.terminal-3855978200-r18 { fill: #0f0f0f }
.terminal-3855978200-r19 { fill: #191919 }
.terminal-3855978200-r20 { fill: #737373 }
.terminal-3855978200-r21 { fill: #a0a0a0 }
.terminal-3855978200-r22 { fill: #6f6f6f }
.terminal-3855978200-r23 { fill: #ffa62b;font-weight: bold }
    </style>

    <defs>
    <clipPath id="terminal-3855978200-clip-terminal">
      <rect x="0" y="0" width="975.0" height="584.5999999999999" />
    </clipPath>
    <clipPath id="terminal-3855978200-line-0">
    <rect x="0" y="1.5" width="976" height="24.65"/>
            </clipPath>
<clipPath id="terminal-3855978200-line-1">
    <rect x="0" y="25.9" width="976" height="24.65"/>
            </clipPath>
<clipPath id="terminal-3855978200-line-2">
    <rect x="0" y="50.3" width="976" height="24.65"/>
            </clipPath>
<clipPath id="terminal-3855978200-line-3">
    <rect x="0" y="74.7" width="976" height="24.65"/>
            </clipPath>
<clipPath id="terminal-3855978200-line-4">
    <rect x="0" y="99.1" width="976" height="24.65"/>
            </clipPath>
<clipPath id="terminal-3855978200-line-5">
    <rect x="0" y="123.5" width="976" height="24.65"/>
            </clipPath>
<clipPath id="terminal-3855978200-line-6">
    <rect x="0" y="147.9" width="976" height="24.65"/>
            </clipPath>
<clipPath id="terminal-3855978200-line-7">
    <rect x="0" y="172.3" width="976" height="24.65"/>
            </clipPath>
<clipPath id="terminal-3855978200-line-8">
    <rect x="0" y="196.7" width="976" height="24.65"/>
            </clipPath>
<clipPath id="terminal-3855978200-line-9">
    <rect x="0" y="221.1" width="976" height="24.65"/>
            </clipPath>
<clipPath id="terminal-3855978200-line-10">
    <rect x="0" y="245.5" width="976" height="24.65"/>
            </clipPath>
<clipPath id="terminal-3855978200-line-11">
    <rect x="0" y="269.9" width="976" height="24.65"/>
            </clipPath>
<clipPath id="terminal-3855978200-line-12">
    <rect x="0" y="294.3" width="976" height="24.65"/>
            </clipPath>
<clipPath id="terminal-3855978200-line-13">
    <rect x="0" y="318.7" width="976" height="24.65"/>
            </clipPath>
<clipPath id="terminal-3855978200-line-14">
    <rect x="0" y="343.1" width="976" height="24.65"/>
            </clipPath>
<clipPath id="terminal-3855978200-line-15">
    <rect x="0" y="367.5" width="976" height="24.65"/>
            </clipPath>
<clipPath id="terminal-3855978200-line-16">
    <rect x="0" y="391.9" width="976" height="24.65"/>
            </clipPath>
<clipPath id="terminal-3855978200-line-17">
    <rect x="0" y="416.3" width="976" height="24.65"/>
            </clipPath>
<clipPath id="terminal-3855978200-line-18">
    <rect x="0" y="440.7" width="976" height="24.65"/>
            </clipPath>
<clipPath id="terminal-3855978200-line-19">
    <rect x="0" y="465.1" width="976" height="24.65"/>
            </clipPath>
<clipPath id="terminal-3855978200-line-20">
    <rect x="0" y="489.5" width="976" height="24.65"/>
            </clipPath>
<clipPath id="terminal-3855978200-line-21">
    <rect x="0" y="513.9" width="976" height="24.65"/>
            </clipPath>
<clipPath id="terminal-3855978200-line-22">
    <rect x="0" y="538.3" width="976" height="24.65"/>
            </clipPath>
    </defs>

    <rect fill="#292929" stroke="rgba(255,255,255,0.35)" stroke-width="1" x="1" y="1" width="992" height="633.6" rx="8"/><text class="terminal-3855978200-title" fill="#c5c8c6" text-anchor="middle" x="496" y="27">PromptMend</text>
            <g transform="translate(26,22)">
            <circle cx="0" cy="0" r="7" fill="#ff5f57"/>
            <circle cx="22" cy="0" r="7" fill="#febc2e"/>
            <circle cx="44" cy="0" r="7" fill="#28c840"/>
            </g>

    <g transform="translate(9, 41)" clip-path="url(#terminal-3855978200-clip-terminal)">
    <rect fill="#242f38" x="0" y="1.5" width="12.2" height="24.65" shape-rendering="crispEdges"/><rect fill="#242f38" x="12.2" y="1.5" width="12.2" height="24.65" shape-rendering="crispEdges"/><rect fill="#242f38" x="24.4" y="1.5" width="61" height="24.65" shape-rendering="crispEdges"/><rect fill="#242f38" x="85.4" y="1.5" width="12.2" height="24.65" shape-rendering="crispEdges"/><rect fill="#242f38" x="97.6" y="1.5" width="73.2" height="24.65" shape-rendering="crispEdges"/><rect fill="#242f38" x="170.8" y="1.5" width="207.4" height="24.65" shape-rendering="crispEdges"/><rect fill="#242f38" x="378.2" y="1.5" width="36.6" height="24.65" shape-rendering="crispEdges"/><rect fill="#242f38" x="414.8" y="1.5" width="353.8" height="24.65" shape-rendering="crispEdges"/><rect fill="#242f38" x="768.6" y="1.5" width="85.4" height="24.65" shape-rendering="crispEdges"/><rect fill="#242f38" x="854" y="1.5" width="12.2" height="24.65" shape-rendering="crispEdges"/><rect fill="#242f38" x="866.2" y="1.5" width="0" height="24.65" shape-rendering="crispEdges"/><rect fill="#242f38" x="866.2" y="1.5" width="97.6" height="24.65" shape-rendering="crispEdges"/><rect fill="#242f38" x="963.8" y="1.5" width="12.2" height="24.65" shape-rendering="crispEdges"/><rect fill="#0178d4" x="0" y="25.9" width="12.2" height="24.65" shape-rendering="crispEdges"/><rect fill="#0178d4" x="12.2" y="25.9" width="73.2" height="24.65" shape-rendering="crispEdges"/><rect fill="#0178d4" x="85.4" y="25.9" width="12.2" height="24.65" shape-rendering="crispEdges"/><rect fill="#121212" x="97.6" y="25.9" width="12.2" height="24.65" shape-rendering="crispEdges"/><rect fill="#121212" x="109.8" y="25.9" width="122" height="24.65" shape-rendering="crispEdges"/><rect fill="#121212" x="231.8" y="25.9" width="12.2" height="24.65" shape-rendering="crispEdges"/><rect fill="#121212" x="244" y="25.9" width="12.2" height="24.65" shape-rendering="crispEdges"/><rect fill="#121212" x="256.2" y="25.9" width="122" height="24.65" shape-rendering="crispEdges"/><rect fill="#121212" x="378.2" y="25.9" width="12.2" height="24.65" shape-rendering="crispEdges"/><rect fill="#121212" x="390.4" y="25.9" width="12.2" height="24.65" shape-rendering="crispEdges"/><rect fill="#121212" x="402.6" y="25.9" width="122" height="24.65" shape-rendering="crispEdges"/><rect fill="#121212" x="524.6" y="25.9" width="12.2" height="24.65" shape-rendering="crispEdges"/><rect fill="#121212" x="536.8" y="25.9" width="12.2" height="24.65" shape-rendering="crispEdges"/><rect fill="#121212" x="549" y="25.9" width="109.8" height="24.65" shape-rendering="crispEdges"/><rect fill="#121212" x="658.8" y="25.9" width="12.2" height="24.65" shape-rendering="crispEdges"/><rect fill="#121212" x="671" y="25.9" width="12.2" height="24.65" shape-rendering="crispEdges"/><rect fill="#121212" x="683.2" y="25.9" width="158.6" height="24.65" shape-rendering="crispEdges"/><rect fill="#121212" x="841.8" y="25.9" width="12.2" height="24.65" shape-rendering="crispEdges"/><rect fill="#121212" x="854" y="25.9" width="12.2" height="24.65" shape-rendering="crispEdges"/><rect fill="#121212" x="866.2" y="25.9" width="61" height="24.65" shape-rendering="crispEdges"/><rect fill="#121212" x="927.2" y="25.9" width="12.2" height="24.65" shape-rendering="crispEdges"/><rect fill="#121212" x="939.4" y="25.9" width="36.6" height="24.65" shape-rendering="crispEdges"/><rect fill="#121212" x="0" y="50.3" width="12.2" height="24.65" shape-rendering="crispEdges"/><rect fill="#121212" x="12.2" y="50.3" width="73.2" height="24.65" shape-rendering="crispEdges"/><rect fill="#121212" x="85.4" y="50.3" width="12.2" height="24.65" shape-rendering="crispEdges"/><rect fill="#121212" x="97.6" y="50.3" width="878.4" height="24.65" shape-rendering="crispEdges"/><rect fill="#121212" x="0" y="74.7" width="12.2" height="24.65" shape-rendering="crispEdges"/><rect fill="#121212" x="12.2" y="74.7" width="927.2" height="24.65" shape-rendering="crispEdges"/><rect fill="#003054" x="939.4" y="74.7" width="24.4" height="24.65" shape-rendering="crispEdges"/><rect fill="#121212" x="963.8" y="74.7" width="12.2" height="24.65" shape-rendering="crispEdges"/><rect fill="#121212" x="0" y="99.1" width="12.2" height="24.65" shape-rendering="crispEdges"/><rect fill="#121212" x="12.2" y="99.1" width="744.2" height="24.65" shape-rendering="crispEdges"/><rect fill="#121212" x="756.4" y="99.1" width="24.4" height="24.65" shape-rendering="crispEdges"/><rect fill="#121212" x="780.8" y="99.1" width="158.6" height="24.65" shape-rendering="crispEdges"/><rect fill="#003054" x="939.4" y="99.1" width="24.4" height="24.65" shape-rendering="crispEdges"/><rect fill="#121212" x="963.8" y="99.1" width="12.2" height="24.65" shape-rendering="crispEdges"/><rect fill="#121212" x="0" y="123.5" width="12.2" height="24.65" shape-rendering="crispEdges"/><rect fill="#121212" x="12.2" y="123.5" width="744.2" height="24.65" shape-rendering="crispEdges"/><rect fill="#121212" x="756.4" y="123.5" width="24.4" height="24.65" shape-rendering="crispEdges"/><rect fill="#121212" x="780.8" y="123.5" width="158.6" height="24.65" shape-rendering="crispEdges"/><rect fill="#003054" x="939.4" y="123.5" width="24.4" height="24.65" shape-rendering="crispEdges"/><rect fill="#121212" x="963.8" y="123.5" width="12.2" height="24.65" shape-rendering="crispEdges"/><rect fill="#121212" x="0" y="147.9" width="12.2" height="24.65" shape-rendering="crispEdges"/><rect fill="#121212" x="12.2" y="147.9" width="927.2" height="24.65" shape-rendering="crispEdges"/><rect fill="#003054" x="939.4" y="147.9" width="24.4" height="24.65" shape-rendering="crispEdges"/><rect fill="#121212" x="963.8" y="147.9" width="12.2" height="24.65" shape-rendering="crispEdges"/><rect fill="#121212" x="0" y="172.3" width="12.2" height="24.65" shape-rendering="crispEdges"/><rect fill="#121212" x="12.2" y="172.3" width="48.8" height="24.65" shape-rendering="crispEdges"/><rect fill="#121212" x="61" y="172.3" width="24.4" height="24.65" shape-rendering="crispEdges"/><rect fill="#121212" x="85.4" y="172.3" width="122" height="24.65" shape-rendering="crispEdges"/><rect fill="#121212" x="207.4" y="172.3" width="24.4" height="24.65" shape-rendering="crispEdges"/><rect fill="#121212" x="231.8" y="172.3" width="463.6" height="24.65" shape-rendering="crispEdges"/><rect fill="#121212" x="695.4" y="172.3" width="24.4" height="24.65" shape-rendering="crispEdges"/><rect fill="#121212" x="719.8" y="172.3" width="219.6" height="24.65" shape-rendering="crispEdges"/><rect fill="#003054" x="939.4" y="172.3" width="24.4" height="24.65" shape-rendering="crispEdges"/><rect fill="#121212" x="963.8" y="172.3" width="12.2" height="24.65" shape-rendering="crispEdges"/><rect fill="#121212" x="0" y="196.7" width="12.2" height="24.65" shape-rendering="crispEdges"/><rect fill="#121212" x="12.2" y="196.7" width="48.8" height="24.65" shape-rendering="crispEdges"/><rect fill="#121212" x="61" y="196.7" width="24.4" height="24.65" shape-rendering="crispEdges"/><rect fill="#121212" x="85.4" y="196.7" width="122" height="24.65" shape-rendering="crispEdges"/><rect fill="#121212" x="207.4" y="196.7" width="24.4" height="24.65" shape-rendering="crispEdges"/><rect fill="#121212" x="231.8" y="196.7" width="463.6" height="24.65" shape-rendering="crispEdges"/><rect fill="#121212" x="695.4" y="196.7" width="24.4" height="24.65" shape-rendering="crispEdges"/><rect fill="#121212" x="719.8" y="196.7" width="219.6" height="24.65" shape-rendering="crispEdges"/><rect fill="#003054" x="939.4" y="196.7" width="24.4" height="24.65" shape-rendering="crispEdges"/><rect fill="#121212" x="963.8" y="196.7" width="12.2" height="24.65" shape-rendering="crispEdges"/><rect fill="#121212" x="0" y="221.1" width="12.2" height="24.65" shape-rendering="crispEdges"/><rect fill="#121212" x="12.2" y="221.1" width="48.8" height="24.65" shape-rendering="crispEdges"/><rect fill="#121212" x="61" y="221.1" width="24.4" height="24.65" shape-rendering="crispEdges"/><rect fill="#121212" x="85.4" y="221.1" width="122" height="24.65" shape-rendering="crispEdges"/><rect fill="#121212" x="207.4" y="221.1" width="24.4" height="24.65" shape-rendering="crispEdges"/><rect fill="#121212" x="231.8" y="221.1" width="463.6" height="24.65" shape-rendering="crispEdges"/><rect fill="#121212" x="695.4" y="221.1" width="24.4" height="24.65" shape-rendering="crispEdges"/><rect fill="#121212" x="719.8" y="221.1" width="219.6" height="24.65" shape-rendering="crispEdges"/><rect fill="#003054" x="939.4" y="221.1" width="24.4" height="24.65" shape-rendering="crispEdges"/><rect fill="#121212" x="963.8" y="221.1" width="12.2" height="24.65" shape-rendering="crispEdges"/><rect fill="#121212" x="0" y="245.5" width="12.2" height="24.65" shape-rendering="crispEdges"/><rect fill="#121212" x="12.2" y="245.5" width="48.8" height="24.65" shape-rendering="crispEdges"/><rect fill="#121212" x="61" y="245.5" width="24.4" height="24.65" shape-rendering="crispEdges"/><rect fill="#121212" x="85.4" y="245.5" width="122" height="24.65" shape-rendering="crispEdges"/><rect fill="#121212" x="207.4" y="245.5" width="24.4" height="24.65" shape-rendering="crispEdges"/><rect fill="#121212" x="231.8" y="245.5" width="463.6" height="24.65" shape-rendering="crispEdges"/><rect fill="#121212" x="695.4" y="245.5" width="24.4" height="24.65" shape-rendering="crispEdges"/><rect fill="#121212" x="719.8" y="245.5" width="219.6" height="24.65" shape-rendering="crispEdges"/><rect fill="#003054" x="939.4" y="245.5" width="24.4" height="24.65" shape-rendering="crispEdges"/><rect fill="#121212" x="963.8" y="245.5" width="12.2" height="24.65" shape-rendering="crispEdges"/><rect fill="#121212" x="0" y="269.9" width="12.2" height="24.65" shape-rendering="crispEdges"/><rect fill="#121212" x="12.2" y="269.9" width="48.8" height="24.65" shape-rendering="crispEdges"/><rect fill="#121212" x="61" y="269.9" width="24.4" height="24.65" shape-rendering="crispEdges"/><rect fill="#121212" x="85.4" y="269.9" width="122" height="24.65" shape-rendering="crispEdges"/><rect fill="#121212" x="207.4" y="269.9" width="24.4" height="24.65" shape-rendering="crispEdges"/><rect fill="#121212" x="231.8" y="269.9" width="463.6" height="24.65" shape-rendering="crispEdges"/><rect fill="#121212" x="695.4" y="269.9" width="24.4" height="24.65" shape-rendering="crispEdges"/><rect fill="#121212" x="719.8" y="269.9" width="219.6" height="24.65" shape-rendering="crispEdges"/><rect fill="#003054" x="939.4" y="269.9" width="24.4" height="24.65" shape-rendering="crispEdges"/><rect fill="#121212" x="963.8" y="269.9" width="12.2" height="24.65" shape-rendering="crispEdges"/><rect fill="#121212" x="0" y="294.3" width="12.2" height="24.65" shape-rendering="crispEdges"/><rect fill="#121212" x="12.2" y="294.3" width="48.8" height="24.65" shape-rendering="crispEdges"/><rect fill="#121212" x="61" y="294.3" width="24.4" height="24.65" shape-rendering="crispEdges"/><rect fill="#121212" x="85.4" y="294.3" width="122" height="24.65" shape-rendering="crispEdges"/><rect fill="#121212" x="207.4" y="294.3" width="24.4" height="24.65" shape-rendering="crispEdges"/><rect fill="#121212" x="231.8" y="294.3" width="463.6" height="24.65" shape-rendering="crispEdges"/><rect fill="#121212" x="695.4" y="294.3" width="24.4" height="24.65" shape-rendering="crispEdges"/><rect fill="#121212" x="719.8" y="294.3" width="219.6" height="24.65" shape-rendering="crispEdges"/><rect fill="#003054" x="939.4" y="294.3" width="24.4" height="24.65" shape-rendering="crispEdges"/><rect fill="#121212" x="963.8" y="294.3" width="12.2" height="24.65" shape-rendering="crispEdges"/><rect fill="#121212" x="0" y="318.7" width="12.2" height="24.65" shape-rendering="crispEdges"/><rect fill="#121212" x="12.2" y="318.7" width="48.8" height="24.65" shape-rendering="crispEdges"/><rect fill="#121212" x="61" y="318.7" width="24.4" height="24.65" shape-rendering="crispEdges"/><rect fill="#121212" x="85.4" y="318.7" width="122" height="24.65" shape-rendering="crispEdges"/><rect fill="#121212" x="207.4" y="318.7" width="24.4" height="24.65" shape-rendering="crispEdges"/><rect fill="#121212" x="231.8" y="318.7" width="463.6" height="24.65" shape-rendering="crispEdges"/><rect fill="#121212" x="695.4" y="318.7" width="24.4" height="24.65" shape-rendering="crispEdges"/><rect fill="#121212" x="719.8" y="318.7" width="219.6" height="24.65" shape-rendering="crispEdges"/><rect fill="#003054" x="939.4" y="318.7" width="24.4" height="24.65" shape-rendering="crispEdges"/><rect fill="#121212" x="963.8" y="318.7" width="12.2" height="24.65" shape-rendering="crispEdges"/><rect fill="#121212" x="0" y="343.1" width="12.2" height="24.65" shape-rendering="crispEdges"/><rect fill="#121212" x="12.2" y="343.1" width="927.2" height="24.65" shape-rendering="crispEdges"/><rect fill="#003054" x="939.4" y="343.1" width="24.4" height="24.65" shape-rendering="crispEdges"/><rect fill="#121212" x="963.8" y="343.1" width="12.2" height="24.65" shape-rendering="crispEdges"/><rect fill="#121212" x="0" y="367.5" width="12.2" height="24.65" shape-rendering="crispEdges"/><rect fill="#1e1e1e" x="12.2" y="367.5" width="97.6" height="24.65" shape-rendering="crispEdges"/><rect fill="#121212" x="109.8" y="367.5" width="12.2" height="24.65" shape-rendering="crispEdges"/><rect fill="#1e1e1e" x="122" y="367.5" width="158.6" height="24.65" shape-rendering="crispEdges"/><rect fill="#121212" x="280.6" y="367.5" width="12.2" height="24.65" shape-rendering="crispEdges"/><rect fill="#1e1e1e" x="292.8" y="367.5" width="122" height="24.65" shape-rendering="crispEdges"/><rect fill="#121212" x="414.8" y="367.5" width="12.2" height="24.65" shape-rendering="crispEdges"/><rect fill="#171717" x="427" y="367.5" width="134.2" height="24.65" shape-rendering="crispEdges"/><rect fill="#121212" x="561.2" y="367.5" width="378.2" height="24.65" shape-rendering="crispEdges"/><rect fill="#003054" x="939.4" y="367.5" width="24.4" height="24.65" shape-rendering="crispEdges"/><rect fill="#121212" x="963.8" y="367.5" width="12.2" height="24.65" shape-rendering="crispEdges"/><rect fill="#121212" x="0" y="391.9" width="12.2" height="24.65" shape-rendering="crispEdges"/><rect fill="#1e1e1e" x="12.2" y="391.9" width="97.6" height="24.65" shape-rendering="crispEdges"/><rect fill="#121212" x="109.8" y="391.9" width="12.2" height="24.65" shape-rendering="crispEdges"/><rect fill="#1e1e1e" x="122" y="391.9" width="158.6" height="24.65" shape-rendering="crispEdges"/><rect fill="#121212" x="280.6" y="391.9" width="12.2" height="24.65" shape-rendering="crispEdges"/><rect fill="#1e1e1e" x="292.8" y="391.9" width="122" height="24.65" shape-rendering="crispEdges"/><rect fill="#121212" x="414.8" y="391.9" width="12.2" height="24.65" shape-rendering="crispEdges"/><rect fill="#171717" x="427" y="391.9" width="134.2" height="24.65" shape-rendering="crispEdges"/><rect fill="#121212" x="561.2" y="391.9" width="378.2" height="24.65" shape-rendering="crispEdges"/><rect fill="#000000" x="939.4" y="391.9" width="24.4" height="24.65" shape-rendering="crispEdges"/><rect fill="#121212" x="963.8" y="391.9" width="12.2" height="24.65" shape-rendering="crispEdges"/><rect fill="#121212" x="0" y="416.3" width="12.2" height="24.65" shape-rendering="crispEdges"/><rect fill="#1e1e1e" x="12.2" y="416.3" width="97.6" height="24.65" shape-rendering="crispEdges"/><rect fill="#121212" x="109.8" y="416.3" width="12.2" height="24.65" shape-rendering="crispEdges"/><rect fill="#1e1e1e" x="122" y="416.3" width="158.6" height="24.65" shape-rendering="crispEdges"/><rect fill="#121212" x="280.6" y="416.3" width="12.2" height="24.65" shape-rendering="crispEdges"/><rect fill="#1e1e1e" x="292.8" y="416.3" width="122" height="24.65" shape-rendering="crispEdges"/><rect fill="#121212" x="414.8" y="416.3" width="12.2" height="24.65" shape-rendering="crispEdges"/><rect fill="#171717" x="427" y="416.3" width="134.2" height="24.65" shape-rendering="crispEdges"/><rect fill="#121212" x="561.2" y="416.3" width="378.2" height="24.65" shape-rendering="crispEdges"/><rect fill="#000000" x="939.4" y="416.3" width="24.4" height="24.65" shape-rendering="crispEdges"/><rect fill="#121212" x="963.8" y="416.3" width="12.2" height="24.65" shape-rendering="crispEdges"/><rect fill="#121212" x="0" y="440.7" width="12.2" height="24.65" shape-rendering="crispEdges"/><rect fill="#121212" x="12.2" y="440.7" width="927.2" height="24.65" shape-rendering="crispEdges"/><rect fill="#000000" x="939.4" y="440.7" width="24.4" height="24.65" shape-rendering="crispEdges"/><rect fill="#121212" x="963.8" y="440.7" width="12.2" height="24.65" shape-rendering="crispEdges"/><rect fill="#121212" x="0" y="465.1" width="12.2" height="24.65" shape-rendering="crispEdges"/><rect fill="#191919" x="12.2" y="465.1" width="12.2" height="24.65" shape-rendering="crispEdges"/><rect fill="#1e1e1e" x="24.4" y="465.1" width="902.8" height="24.65" shape-rendering="crispEdges"/><rect fill="#121212" x="927.2" y="465.1" width="12.2" height="24.65" shape-rendering="crispEdges"/><rect fill="#000000" x="939.4" y="465.1" width="24.4" height="24.65" shape-rendering="crispEdges"/><rect fill="#121212" x="963.8" y="465.1" width="12.2" height="24.65" shape-rendering="crispEdges"/><rect fill="#121212" x="0" y="489.5" width="12.2" height="24.65" shape-rendering="crispEdges"/><rect fill="#191919" x="12.2" y="489.5" width="12.2" height="24.65" shape-rendering="crispEdges"/><rect fill="#1e1e1e" x="24.4" y="489.5" width="24.4" height="24.65" shape-rendering="crispEdges"/><rect fill="#1e1e1e" x="48.8" y="489.5" width="353.8" height="24.65" shape-rendering="crispEdges"/><rect fill="#1e1e1e" x="402.6" y="489.5" width="500.2" height="24.65" shape-rendering="crispEdges"/><rect fill="#1e1e1e" x="902.8" y="489.5" width="24.4" height="24.65" shape-rendering="crispEdges"/><rect fill="#121212" x="927.2" y="489.5" width="12.2" height="24.65" shape-rendering="crispEdges"/><rect fill="#000000" x="939.4" y="489.5" width="24.4" height="24.65" shape-rendering="crispEdges"/><rect fill="#121212" x="963.8" y="489.5" width="12.2" height="24.65" shape-rendering="crispEdges"/><rect fill="#121212" x="0" y="513.9" width="12.2" height="24.65" shape-rendering="crispEdges"/><rect fill="#191919" x="12.2" y="513.9" width="12.2" height="24.65" shape-rendering="crispEdges"/><rect fill="#1e1e1e" x="24.4" y="513.9" width="902.8" height="24.65" shape-rendering="crispEdges"/><rect fill="#121212" x="927.2" y="513.9" width="12.2" height="24.65" shape-rendering="crispEdges"/><rect fill="#000000" x="939.4" y="513.9" width="24.4" height="24.65" shape-rendering="crispEdges"/><rect fill="#121212" x="963.8" y="513.9" width="12.2" height="24.65" shape-rendering="crispEdges"/><rect fill="#121212" x="0" y="538.3" width="12.2" height="24.65" shape-rendering="crispEdges"/><rect fill="#121212" x="12.2" y="538.3" width="597.8" height="24.65" shape-rendering="crispEdges"/><rect fill="#121212" x="610" y="538.3" width="280.6" height="24.65" shape-rendering="crispEdges"/><rect fill="#121212" x="890.6" y="538.3" width="48.8" height="24.65" shape-rendering="crispEdges"/><rect fill="#000000" x="939.4" y="538.3" width="24.4" height="24.65" shape-rendering="crispEdges"/><rect fill="#121212" x="963.8" y="538.3" width="12.2" height="24.65" shape-rendering="crispEdges"/><rect fill="#242f38" x="0" y="562.7" width="36.6" height="24.65" shape-rendering="crispEdges"/><rect fill="#242f38" x="36.6" y="562.7" width="97.6" height="24.65" shape-rendering="crispEdges"/><rect fill="#242f38" x="134.2" y="562.7" width="36.6" height="24.65" shape-rendering="crispEdges"/><rect fill="#242f38" x="170.8" y="562.7" width="73.2" height="24.65" shape-rendering="crispEdges"/><rect fill="#242f38" x="244" y="562.7" width="36.6" height="24.65" shape-rendering="crispEdges"/><rect fill="#242f38" x="280.6" y="562.7" width="85.4" height="24.65" shape-rendering="crispEdges"/><rect fill="#242f38" x="366" y="562.7" width="36.6" height="24.65" shape-rendering="crispEdges"/><rect fill="#242f38" x="402.6" y="562.7" width="170.8" height="24.65" shape-rendering="crispEdges"/><rect fill="#242f38" x="573.4" y="562.7" width="36.6" height="24.65" shape-rendering="crispEdges"/><rect fill="#242f38" x="610" y="562.7" width="61" height="24.65" shape-rendering="crispEdges"/><rect fill="#242f38" x="671" y="562.7" width="305" height="24.65" shape-rendering="crispEdges"/>
    <g class="terminal-3855978200-matrix">
    <text class="terminal-3855978200-r2" x="12.2" y="20" textLength="12.2" clip-path="url(#terminal-3855978200-line-0)">⭘</text><text class="terminal-3855978200-r2" x="170.8" y="20" textLength="207.4" clip-path="url(#terminal-3855978200-line-0)">PromptMend&#160;0.20.0</text><text class="terminal-3855978200-r3" x="378.2" y="20" textLength="36.6" clip-path="url(#terminal-3855978200-line-0)">&#160;—&#160;</text><text class="terminal-3855978200-r3" x="414.8" y="20" textLength="353.8" clip-path="url(#terminal-3855978200-line-0)">1&#160;warning&#160;·&#160;set&#160;up&#160;and&#160;manage</text><text class="terminal-3855978200-r1" x="976" y="20" textLength="12.2" clip-path="url(#terminal-3855978200-line-0)">
</text><text class="terminal-3855978200-r4" x="12.2" y="44.4" textLength="73.2" clip-path="url(#terminal-3855978200-line-1)">1&#160;Home</text><text class="terminal-3855978200-r5" x="109.8" y="44.4" textLength="122" clip-path="url(#terminal-3855978200-line-1)">2&#160;Settings</text><text class="terminal-3855978200-r5" x="256.2" y="44.4" textLength="122" clip-path="url(#terminal-3855978200-line-1)">3&#160;Profiles</text><text class="terminal-3855978200-r5" x="402.6" y="44.4" textLength="122" clip-path="url(#terminal-3855978200-line-1)">4&#160;Triggers</text><text class="terminal-3855978200-r5" x="549" y="44.4" textLength="109.8" clip-path="url(#terminal-3855978200-line-1)">5&#160;History</text><text class="terminal-3855978200-r5" x="683.2" y="44.4" textLength="158.6" clip-path="url(#terminal-3855978200-line-1)">6&#160;Diagnostics</text><text class="terminal-3855978200-r5" x="866.2" y="44.4" textLength="61" clip-path="url(#terminal-3855978200-line-1)">7&#160;Try</text><text class="terminal-3855978200-r1" x="976" y="44.4" textLength="12.2" clip-path="url(#terminal-3855978200-line-1)">
</text><text class="terminal-3855978200-r6" x="0" y="68.8" textLength="12.2" clip-path="url(#terminal-3855978200-line-2)">╸</text><text class="terminal-3855978200-r7" x="12.2" y="68.8" textLength="73.2" clip-path="url(#terminal-3855978200-line-2)">━━━━━━</text><text class="terminal-3855978200-r6" x="85.4" y="68.8" textLength="12.2" clip-path="url(#terminal-3855978200-line-2)">╺</text><text class="terminal-3855978200-r6" x="97.6" y="68.8" textLength="878.4" clip-path="url(#terminal-3855978200-line-2)">━━━━━━━━━━━━━━━━━━━━━━━━━━━━━━━━━━━━━━━━━━━━━━━━━━━━━━━━━━━━━━━━━━━━━━━━</text><text class="terminal-3855978200-r1" x="976" y="68.8" textLength="12.2" clip-path="url(#terminal-3855978200-line-2)">
</text><text class="terminal-3855978200-r1" x="976" y="93.2" textLength="12.2" clip-path="url(#terminal-3855978200-line-3)">
</text><text class="terminal-3855978200-r9" x="12.2" y="117.6" textLength="744.2" clip-path="url(#terminal-3855978200-line-4)">Almost&#160;ready:&#160;one&#160;match&#160;file&#160;was&#160;edited&#160;since&#160;the&#160;last&#160;&#160;&#160;&#160;&#160;&#160;&#160;</text><text class="terminal-3855978200-r2" x="780.8" y="117.6" textLength="158.6" clip-path="url(#terminal-3855978200-line-4)">-&gt;&#160;4&#160;Triggers</text><text class="terminal-3855978200-r1" x="976" y="117.6" textLength="12.2" clip-path="url(#terminal-3855978200-line-4)">
</text><text class="terminal-3855978200-r9" x="12.2" y="142" textLength="744.2" clip-path="url(#terminal-3855978200-line-5)">deploy.&#160;&#160;&#160;&#160;&#160;&#160;&#160;&#160;&#160;&#160;&#160;&#160;&#160;&#160;&#160;&#160;&#160;&#160;&#160;&#160;&#160;&#160;&#160;&#160;&#160;&#160;&#160;&#160;&#160;&#160;&#160;&#160;&#160;&#160;&#160;&#160;&#160;&#160;&#160;&#160;&#160;&#160;&#160;&#160;&#160;&#160;&#160;&#160;&#160;&#160;&#160;&#160;&#160;&#160;</text><text class="terminal-3855978200-r1" x="976" y="142" textLength="12.2" clip-path="url(#terminal-3855978200-line-5)">
</text><text class="terminal-3855978200-r1" x="976" y="166.4" textLength="12.2" clip-path="url(#terminal-3855978200-line-6)">
</text><text class="terminal-3855978200-r10" x="12.2" y="190.8" textLength="48.8" clip-path="url(#terminal-3855978200-line-7)">new&#160;</text><text class="terminal-3855978200-r9" x="85.4" y="190.8" textLength="122" clip-path="url(#terminal-3855978200-line-7)">Version&#160;&#160;&#160;</text><text class="terminal-3855978200-r2" x="231.8" y="190.8" textLength="463.6" clip-path="url(#terminal-3855978200-line-7)">0.21.0&#160;available&#160;&#160;&#160;&#160;&#160;&#160;&#160;&#160;&#160;&#160;&#160;&#160;&#160;&#160;&#160;&#160;&#160;&#160;&#160;&#160;&#160;&#160;</text><text class="terminal-3855978200-r2" x="719.8" y="190.8" textLength="219.6" clip-path="url(#terminal-3855978200-line-7)">&#160;&#160;a:&#160;how&#160;to&#160;update</text><text class="terminal-3855978200-r1" x="976" y="190.8" textLength="12.2" clip-path="url(#terminal-3855978200-line-7)">
</text><text class="terminal-3855978200-r11" x="12.2" y="215.2" textLength="48.8" clip-path="url(#terminal-3855978200-line-8)">ok&#160;&#160;</text><text class="terminal-3855978200-r9" x="85.4" y="215.2" textLength="122" clip-path="url(#terminal-3855978200-line-8)">Rewrites&#160;&#160;</text><text class="terminal-3855978200-r2" x="231.8" y="215.2" textLength="463.6" clip-path="url(#terminal-3855978200-line-8)">openrouter&#160;·&#160;google/gemini-3.5-flash-…</text><text class="terminal-3855978200-r2" x="719.8" y="215.2" textLength="219.6" clip-path="url(#terminal-3855978200-line-8)">&#160;&#160;&#160;&#160;&#160;&#160;&#160;&#160;&#160;&#160;&#160;key&#160;set</text><text class="terminal-3855978200-r1" x="976" y="215.2" textLength="12.2" clip-path="url(#terminal-3855978200-line-8)">
</text><text class="terminal-3855978200-r11" x="12.2" y="239.6" textLength="48.8" clip-path="url(#terminal-3855978200-line-9)">ok&#160;&#160;</text><text class="terminal-3855978200-r9" x="85.4" y="239.6" textLength="122" clip-path="url(#terminal-3855978200-line-9)">Pro&#160;(-ip-)</text><text class="terminal-3855978200-r2" x="231.8" y="239.6" textLength="463.6" clip-path="url(#terminal-3855978200-line-9)">openrouter&#160;·&#160;openai/gpt-6-luna&#160;&#160;&#160;&#160;&#160;&#160;&#160;&#160;</text><text class="terminal-3855978200-r2" x="719.8" y="239.6" textLength="219.6" clip-path="url(#terminal-3855978200-line-9)">&#160;&#160;&#160;&#160;&#160;&#160;&#160;&#160;&#160;&#160;&#160;key&#160;set</text><text class="terminal-3855978200-r1" x="976" y="239.6" textLength="12.2" clip-path="url(#terminal-3855978200-line-9)">
</text><text class="terminal-3855978200-r12" x="12.2" y="264" textLength="48.8" clip-path="url(#terminal-3855978200-line-10)">warn</text><text class="terminal-3855978200-r9" x="85.4" y="264" textLength="122" clip-path="url(#terminal-3855978200-line-10)">Triggers&#160;&#160;</text><text class="terminal-3855978200-r2" x="231.8" y="264" textLength="463.6" clip-path="url(#terminal-3855978200-line-10)">2&#160;of&#160;3&#160;match&#160;files&#160;in&#160;sync&#160;·&#160;Espanso&#160;…</text><text class="terminal-3855978200-r2" x="719.8" y="264" textLength="219.6" clip-path="url(#terminal-3855978200-line-10)">&#160;&#160;&#160;&#160;&#160;-&gt;&#160;4&#160;Triggers</text><text class="terminal-3855978200-r1" x="976" y="264" textLength="12.2" clip-path="url(#terminal-3855978200-line-10)">
</text><text class="terminal-3855978200-r11" x="12.2" y="288.4" textLength="48.8" clip-path="url(#terminal-3855978200-line-11)">ok&#160;&#160;</text><text class="terminal-3855978200-r9" x="85.4" y="288.4" textLength="122" clip-path="url(#terminal-3855978200-line-11)">History&#160;&#160;&#160;</text><text class="terminal-3855978200-r2" x="231.8" y="288.4" textLength="463.6" clip-path="url(#terminal-3855978200-line-11)">on&#160;·&#160;57&#160;calls&#160;recorded&#160;&#160;&#160;&#160;&#160;&#160;&#160;&#160;&#160;&#160;&#160;&#160;&#160;&#160;&#160;&#160;</text><text class="terminal-3855978200-r1" x="976" y="288.4" textLength="12.2" clip-path="url(#terminal-3855978200-line-11)">
</text><text class="terminal-3855978200-r11" x="12.2" y="312.8" textLength="48.8" clip-path="url(#terminal-3855978200-line-12)">ok&#160;&#160;</text><text class="terminal-3855978200-r9" x="85.4" y="312.8" textLength="122" clip-path="url(#terminal-3855978200-line-12)">Output&#160;&#160;&#160;&#160;</text><text class="terminal-3855978200-r2" x="231.8" y="312.8" textLength="463.6" clip-path="url(#terminal-3855978200-line-12)">paste&#160;into&#160;the&#160;app&#160;&#160;&#160;&#160;&#160;&#160;&#160;&#160;&#160;&#160;&#160;&#160;&#160;&#160;&#160;&#160;&#160;&#160;&#160;&#160;</text><text class="terminal-3855978200-r2" x="719.8" y="312.8" textLength="219.6" clip-path="url(#terminal-3855978200-line-12)">change:&#160;2&#160;Settings</text><text class="terminal-3855978200-r1" x="976" y="312.8" textLength="12.2" clip-path="url(#terminal-3855978200-line-12)">
</text><text class="terminal-3855978200-r12" x="12.2" y="337.2" textLength="48.8" clip-path="url(#terminal-3855978200-line-13)">warn</text><text class="terminal-3855978200-r9" x="85.4" y="337.2" textLength="122" clip-path="url(#terminal-3855978200-line-13)">Checks&#160;&#160;&#160;&#160;</text><text class="terminal-3855978200-r2" x="231.8" y="337.2" textLength="463.6" clip-path="url(#terminal-3855978200-line-13)">14&#160;ok&#160;·&#160;1&#160;warn&#160;·&#160;0&#160;fail&#160;&#160;&#160;&#160;&#160;&#160;&#160;&#160;&#160;&#160;&#160;&#160;&#160;&#160;&#160;</text><text class="terminal-3855978200-r2" x="719.8" y="337.2" textLength="219.6" clip-path="url(#terminal-3855978200-line-13)">&#160;&#160;-&gt;&#160;6&#160;Diagnostics</text><text class="terminal-3855978200-r1" x="976" y="337.2" textLength="12.2" clip-path="url(#terminal-3855978200-line-13)">
</text><text class="terminal-3855978200-r1" x="976" y="361.6" textLength="12.2" clip-path="url(#terminal-3855978200-line-14)">
</text><text class="terminal-3855978200-r13" x="12.2" y="386" textLength="97.6" clip-path="url(#terminal-3855978200-line-15)">▔▔▔▔▔▔▔▔</text><text class="terminal-3855978200-r13" x="122" y="386" textLength="158.6" clip-path="url(#terminal-3855978200-line-15)">▔▔▔▔▔▔▔▔▔▔▔▔▔</text><text class="terminal-3855978200-r13" x="292.8" y="386" textLength="122" clip-path="url(#terminal-3855978200-line-15)">▔▔▔▔▔▔▔▔▔▔</text><text class="terminal-3855978200-r14" x="427" y="386" textLength="134.2" clip-path="url(#terminal-3855978200-line-15)">▔▔▔▔▔▔▔▔▔▔▔</text><text class="terminal-3855978200-r15" x="939.4" y="386" textLength="24.4" clip-path="url(#terminal-3855978200-line-15)">▄▄</text><text class="terminal-3855978200-r1" x="976" y="386" textLength="12.2" clip-path="url(#terminal-3855978200-line-15)">
</text><text class="terminal-3855978200-r9" x="12.2" y="410.4" textLength="97.6" clip-path="url(#terminal-3855978200-line-16)">&#160;Setup…&#160;</text><text class="terminal-3855978200-r9" x="122" y="410.4" textLength="158.6" clip-path="url(#terminal-3855978200-line-16)">&#160;Check&#160;again&#160;</text><text class="terminal-3855978200-r9" x="292.8" y="410.4" textLength="122" clip-path="url(#terminal-3855978200-line-16)">&#160;Recipes…&#160;</text><text class="terminal-3855978200-r16" x="427" y="410.4" textLength="134.2" clip-path="url(#terminal-3855978200-line-16)">&#160;Copy&#160;last&#160;</text><text class="terminal-3855978200-r1" x="976" y="410.4" textLength="12.2" clip-path="url(#terminal-3855978200-line-16)">
</text><text class="terminal-3855978200-r17" x="12.2" y="434.8" textLength="97.6" clip-path="url(#terminal-3855978200-line-17)">▁▁▁▁▁▁▁▁</text><text class="terminal-3855978200-r17" x="122" y="434.8" textLength="158.6" clip-path="url(#terminal-3855978200-line-17)">▁▁▁▁▁▁▁▁▁▁▁▁▁</text><text class="terminal-3855978200-r17" x="292.8" y="434.8" textLength="122" clip-path="url(#terminal-3855978200-line-17)">▁▁▁▁▁▁▁▁▁▁</text><text class="terminal-3855978200-r18" x="427" y="434.8" textLength="134.2" clip-path="url(#terminal-3855978200-line-17)">▁▁▁▁▁▁▁▁▁▁▁</text><text class="terminal-3855978200-r1" x="976" y="434.8" textLength="12.2" clip-path="url(#terminal-3855978200-line-17)">
</text><text class="terminal-3855978200-r1" x="976" y="459.2" textLength="12.2" clip-path="url(#terminal-3855978200-line-18)">
</text><text class="terminal-3855978200-r8" x="12.2" y="483.6" textLength="12.2" clip-path="url(#terminal-3855978200-line-19)">▊</text><text class="terminal-3855978200-r19" x="24.4" y="483.6" textLength="902.8" clip-path="url(#terminal-3855978200-line-19)">▔▔▔▔▔▔▔▔▔▔▔▔▔▔▔▔▔▔▔▔▔▔▔▔▔▔▔▔▔▔▔▔▔▔▔▔▔▔▔▔▔▔▔▔▔▔▔▔▔▔▔▔▔▔▔▔▔▔▔▔▔▔▔▔▔▔▔▔▔▔▔▔▔▔</text><text class="terminal-3855978200-r19" x="927.2" y="483.6" textLength="12.2" clip-path="url(#terminal-3855978200-line-19)">▎</text><text class="terminal-3855978200-r1" x="976" y="483.6" textLength="12.2" clip-path="url(#terminal-3855978200-line-19)">
</text><text class="terminal-3855978200-r8" x="12.2" y="508" textLength="12.2" clip-path="url(#terminal-3855978200-line-20)">▊</text><text class="terminal-3855978200-r20" x="48.8" y="508" textLength="353.8" clip-path="url(#terminal-3855978200-line-20)">Type&#160;a&#160;promptmend&#160;command&#160;(c)</text><text class="terminal-3855978200-r19" x="927.2" y="508" textLength="12.2" clip-path="url(#terminal-3855978200-line-20)">▎</text><text class="terminal-3855978200-r1" x="976" y="508" textLength="12.2" clip-path="url(#terminal-3855978200-line-20)">
</text><text class="terminal-3855978200-r8" x="12.2" y="532.4" textLength="12.2" clip-path="url(#terminal-3855978200-line-21)">▊</text><text class="terminal-3855978200-r19" x="24.4" y="532.4" textLength="902.8" clip-path="url(#terminal-3855978200-line-21)">▁▁▁▁▁▁▁▁▁▁▁▁▁▁▁▁▁▁▁▁▁▁▁▁▁▁▁▁▁▁▁▁▁▁▁▁▁▁▁▁▁▁▁▁▁▁▁▁▁▁▁▁▁▁▁▁▁▁▁▁▁▁▁▁▁▁▁▁▁▁▁▁▁▁</text><text class="terminal-3855978200-r19" x="927.2" y="532.4" textLength="12.2" clip-path="url(#terminal-3855978200-line-21)">▎</text><text class="terminal-3855978200-r1" x="976" y="532.4" textLength="12.2" clip-path="url(#terminal-3855978200-line-21)">
</text><text class="terminal-3855978200-r21" x="12.2" y="556.8" textLength="597.8" clip-path="url(#terminal-3855978200-line-22)">Tab&#160;or&#160;Right&#160;arrow&#160;completes;&#160;Enter&#160;runs&#160;it.&#160;Try&#160;</text><text class="terminal-3855978200-r22" x="610" y="556.8" textLength="280.6" clip-path="url(#terminal-3855978200-line-22)">$&#160;promptmend&#160;doctor&#160;·&#160;$</text><text class="terminal-3855978200-r1" x="976" y="556.8" textLength="12.2" clip-path="url(#terminal-3855978200-line-22)">
</text><text class="terminal-3855978200-r23" x="0" y="581.2" textLength="36.6" clip-path="url(#terminal-3855978200-line-23)">&#160;c&#160;</text><text class="terminal-3855978200-r2" x="36.6" y="581.2" textLength="97.6" clip-path="url(#terminal-3855978200-line-23)">Command&#160;</text><text class="terminal-3855978200-r23" x="134.2" y="581.2" textLength="36.6" clip-path="url(#terminal-3855978200-line-23)">&#160;a&#160;</text><text class="terminal-3855978200-r2" x="170.8" y="581.2" textLength="73.2" clip-path="url(#terminal-3855978200-line-23)">About&#160;</text><text class="terminal-3855978200-r23" x="244" y="581.2" textLength="36.6" clip-path="url(#terminal-3855978200-line-23)">&#160;r&#160;</text><text class="terminal-3855978200-r2" x="280.6" y="581.2" textLength="85.4" clip-path="url(#terminal-3855978200-line-23)">Reload&#160;</text><text class="terminal-3855978200-r23" x="366" y="581.2" textLength="36.6" clip-path="url(#terminal-3855978200-line-23)">&#160;t&#160;</text><text class="terminal-3855978200-r2" x="402.6" y="581.2" textLength="170.8" clip-path="url(#terminal-3855978200-line-23)">High&#160;contrast&#160;</text><text class="terminal-3855978200-r23" x="573.4" y="581.2" textLength="36.6" clip-path="url(#terminal-3855978200-line-23)">&#160;q&#160;</text><text class="terminal-3855978200-r2" x="610" y="581.2" textLength="61" clip-path="url(#terminal-3855978200-line-23)">Quit&#160;</text>
    </g>
    </g>
</svg>
